# xmcd
#
# Track frame offsets:
#	150
#	11922
#	27124
#	38920
#	51428
#	70977
#	88577
#	113104
#	127735
#	146135
#	159547
#	171461
#	182284
#
# Disc length: 2701 seconds
#
# Revision: 0
# Processed by: cddbd v1.5.1PL0 Copyright (c) Steve Scherf et al.
# Submitted via: audiograbber 1.83.01
#
DISCID=af0a8b0d
DTITLE=Pedro Ochoa - Naci Otra Vez
DYEAR=2004
DGENRE=Country
TTITLE0=Dos Ranas
TTITLE1=Naci Otra Vez
TTITLE2=Halle Un Buen Amigo
TTITLE3=Apesar de Todo
TTITLE4=Hombre de Fe
TTITLE5=Amiga Mia
TTITLE6=Cuan Grande es El
TTITLE7=Un Nuevo Dia
TTITLE8=Pudo Ser
TTITLE9=Tendras Que Renacer
TTITLE10=Soy Feliz
TTITLE11=Corazon y Mente
TTITLE12=Esta Muriendo
EXTD=
EXTT0=
EXTT1=
EXTT2=
EXTT3=
EXTT4=
EXTT5=
EXTT6=
EXTT7=
EXTT8=
EXTT9=
EXTT10=
EXTT11=
EXTT12=
PLAYORDER=
